<?xml version="1.0" encoding="UTF-8"?>
<svg version="1.1" xmlns="http://www.w3.org/2000/svg" width="753" height="810" preserveAspectRatio="meet">
<path d="M0 0 C11.03168388 -0.42606712 21.39146891 1.8387114 32.140625 4.1015625 C39.02387027 5.51252796 45.78644367 6.69053886 52.8046875 5.85546875 C66.26191587 4.2784498 79.08497787 5.28033664 92.2421875 8.29296875 C92.90089844 8.43798828 93.55960937 8.58300781 94.23828125 8.73242188 C120.0838383 14.64363344 143.42261713 28.9537778 162.2421875 47.29296875 C162.95632813 47.93363281 163.67046875 48.57429688 164.40625 49.234375 C185.09032179 68.31151691 193.51574554 98.60048468 199.5546875 125.04296875 C199.79727295 126.09419922 200.0398584 127.14542969 200.28979492 128.22851562 C203.62915837 143.57377007 204.63827024 158.93819058 204.5546875 174.60546875 C204.551203 175.41400299 204.54771851 176.22253723 204.54412842 177.05557251 C204.24893206 224.85797719 186.94364137 283.93005946 152.93359375 318.65039062 C151.1390764 320.39310321 149.28625688 322.04258509 147.3984375 323.68359375 C146.43877075 324.52760742 146.43877075 324.52760742 145.4597168 325.38867188 C144.22457117 326.46125252 142.97148316 327.51364372 141.69848633 328.54101562 C138.5393943 331.27407691 136.87723135 333.29063828 136.27734375 337.4921875 C136.04395691 342.83042166 136.63798447 348.07396175 137.3671875 353.35546875 C137.50406982 354.3619043 137.64095215 355.36833984 137.78198242 356.40527344 C141.0945531 379.03245739 151.0693966 399.52904525 169.50439453 413.67797852 C188.1510889 427.47957582 211.21965061 439.59776544 233.93847656 444.76708984 C236.65653937 445.38755479 239.36684196 446.03805716 242.078125 446.6875 C253.09386085 449.30072201 264.13554161 451.72312465 275.2421875 453.91796875 C276.27666016 454.12429932 277.31113281 454.33062988 278.37695312 454.54321289 C283.05367119 455.47400514 287.73186364 456.38477435 292.421875 457.24609375 C308.71888071 460.36006577 321.25446272 468.81243957 331.1796875 482.29296875 C339.37614038 494.88177915 340.40340171 508.68538499 341.3671875 523.35546875 C341.45355469 524.52529297 341.53992188 525.69511719 341.62890625 526.90039062 C342.31900733 537.03830418 342.32823347 547.13612923 342.2421875 557.29296875 C341.51777969 557.30327621 340.79337189 557.31358368 340.04701233 557.32420349 C333.23366848 557.42201643 326.4204095 557.52450734 319.60721684 557.63230801 C316.10414395 557.6875683 312.60106277 557.74099309 309.09790039 557.7902832 C305.07428606 557.84697543 301.05083219 557.91154276 297.02734375 557.9765625 C295.76382584 557.99327499 294.50030792 558.00998749 293.19850159 558.02720642 C292.0373735 558.04715164 290.87624542 558.06709686 289.67993164 558.08764648 C288.65178848 558.10319077 287.62364532 558.11873505 286.56434631 558.13475037 C284.28133397 558.03468746 284.28133397 558.03468746 283.2421875 559.29296875 C281.34410338 559.41236025 279.44150823 559.45988616 277.53979492 559.48143005 C276.27125168 559.49798834 275.00270844 559.51454662 273.69572449 559.53160667 C272.24636991 559.54523923 270.79701375 559.55870328 269.34765625 559.57202148 C267.7875787 559.58975818 266.22750492 559.60782954 264.66743469 559.62619972 C260.22056646 559.67676981 255.77365072 559.71994049 251.32669067 559.76155782 C248.39583896 559.78938386 245.46500951 559.81895845 242.53417969 559.84899712 C172.5299691 560.5617664 102.52117958 560.86023685 32.5145725 561.2393202 C17.32220105 561.32162821 2.12984639 561.40660292 -13.0625 561.4934082 C-59.42163756 561.75797866 -105.78079542 562.00661387 -152.14021742 562.21616016 C-163.25122149 562.26638412 -174.36218635 562.32157052 -185.47314453 562.38104248 C-195.94819093 562.43680076 -206.42320505 562.48297674 -216.89836311 562.51154965 C-221.77638838 562.52488571 -226.65427683 562.54242937 -231.53222656 562.57313728 C-235.81404024 562.59993481 -240.09565066 562.61339028 -244.37754631 562.61464429 C-245.87775456 562.61742944 -247.37796388 562.62524759 -248.8781147 562.63866687 C-250.86146225 562.65571474 -252.84495301 562.65273226 -254.82836914 562.64842224 C-256.45555626 562.65417346 -256.45555626 562.65417346 -258.11561584 562.66004086 C-260.7578125 562.29296875 -260.7578125 562.29296875 -262.58891296 560.98845005 C-264.55913022 558.13066252 -264.50085786 554.83744262 -264.7421875 551.46875 C-264.80690247 550.68968796 -264.87161743 549.91062592 -264.93829346 549.10795593 C-265.07245134 547.45164664 -265.19977225 545.79477158 -265.32080078 544.13745117 C-265.50392466 541.65810682 -265.71298216 539.18202979 -265.92578125 536.70507812 C-268.8312726 500.7849113 -268.8312726 500.7849113 -259.6328125 488.60546875 C-258.36002038 487.15123038 -257.0672597 485.71429105 -255.7578125 484.29296875 C-255.06300781 483.45894531 -254.36820313 482.62492187 -253.65234375 481.765625 C-239.22458908 464.78428544 -218.47187825 459.42756848 -198.02554321 452.70547485 C-144.83278963 436.32414563 -144.83278963 436.32414563 -102.3203125 402.23046875 C-101.8046875 401.59109375 -101.2890625 400.95171875 -100.7578125 400.29296875 C-100.0978125 400.29296875 -99.4378125 400.29296875 -98.7578125 400.29296875 C-98.50386719 399.72578125 -98.24992188 399.15859375 -97.98828125 398.57421875 C-96.60493405 396.00953695 -94.95502906 394.01463857 -93.0703125 391.79296875 C-78.47869472 373.68561698 -75.061279 353.78852458 -72.7578125 331.29296875 C-73.80775391 330.91978516 -73.80775391 330.91978516 -74.87890625 330.5390625 C-101.01343407 319.2271027 -119.4210323 291.20752059 -130.7578125 266.29296875 C-131.29148438 265.12636719 -131.82515625 263.95976562 -132.375 262.7578125 C-153.99991975 212.16894583 -151.69049806 152.32573911 -136.7578125 100.29296875 C-136.43224365 99.14272217 -136.43224365 99.14272217 -136.10009766 97.96923828 C-130.71861069 79.56629015 -121.26854486 61.80102855 -108.7578125 47.29296875 C-108.16742188 46.55433594 -107.57703125 45.81570312 -106.96875 45.0546875 C-102.25553342 39.30277627 -96.62445364 34.8226294 -90.7578125 30.29296875 C-90.19529785 29.85017578 -89.6327832 29.40738281 -89.05322266 28.95117188 C-62.7296161 8.3091796 -32.76739268 2.55463041 0 0 Z M-12.8203125 9.54296875 C-13.90940918 9.67719238 -14.99850586 9.81141602 -16.12060547 9.94970703 C-42.29841206 13.33307595 -63.51185505 20.89110416 -84.71826172 36.76708984 C-86.41136222 38.03377384 -88.11631903 39.28459199 -89.82421875 40.53125 C-117.62062886 61.54168206 -130.34865352 100.26662484 -135.7578125 133.29296875 C-135.94118164 134.4113916 -136.12455078 135.52981445 -136.31347656 136.68212891 C-144.65709104 189.16501692 -138.56882878 245.96727642 -107.19482422 290.3203125 C-97.01865563 304.28963669 -84.74913383 315.12766339 -69.83203125 323.890625 C-67.7578125 325.29296875 -67.7578125 325.29296875 -65.7578125 328.29296875 C-62.88095939 350.2924337 -70.45504679 374.74764527 -82.5234375 392.95703125 C-88.42874545 400.63393158 -95.41395713 407.55890268 -102.10595703 414.54882812 C-103.40920116 415.92488134 -104.68129241 417.33043813 -105.94140625 418.74609375 C-126.95303678 441.76997397 -165.83362561 451.15433055 -194.5078125 460.54296875 C-229.32835035 471.21802815 -229.32835035 471.21802815 -254.45703125 496.22265625 C-262.13001976 514.33367418 -257.85404538 535.42687279 -255.7578125 554.29296875 C-236.2878125 554.29296875 -216.8178125 554.29296875 -196.7578125 554.29296875 C-198.0778125 546.70296875 -199.3978125 539.11296875 -200.7578125 531.29296875 C-202.84865775 512.47536148 -200.28844837 498.60975621 -188.3828125 483.54296875 C-180.2230289 473.96171531 -172.96754338 468.42997795 -160.6640625 465.5859375 C-151.13718794 463.28592966 -141.98028734 460.08324481 -132.7578125 456.79296875 C-131.00680745 456.17294631 -129.25574866 455.55307562 -127.50463867 454.93334961 C-122.25011343 453.06865411 -117.00307059 451.18354975 -111.7578125 449.29296875 C-110.56167328 448.8628952 -110.56167328 448.8628952 -109.34136963 448.4241333 C-104.91761685 446.83233958 -100.49930349 445.22680446 -96.08862305 443.59912109 C-94.77003633 443.11328402 -93.45041282 442.63024919 -92.12963867 442.15039062 C-73.35097492 435.30849523 -58.85592561 425.49222736 -44.41308594 411.82910156 C-42.6318737 410.17609457 -40.81263115 408.57342074 -38.984375 406.97265625 C-25.76193075 395.27022309 -18.08489402 382.687805 -11.7578125 366.29296875 C-11.3453125 365.23722656 -10.9328125 364.18148438 -10.5078125 363.09375 C-7.28844245 353.84989704 -3.4297583 338.93777465 -6.7578125 329.29296875 C-8.52490819 328.13538833 -8.52490819 328.13538833 -10.8203125 327.29296875 C-37.0233503 315.07238173 -54.7232808 291.91171145 -64.59765625 265.45703125 C-84.38881801 210.10186533 -87.86374076 138.72491008 -62.7578125 84.29296875 C-47.7770092 52.93315384 -23.36186531 26.40794334 9.63427734 14.46362305 C12.82296232 13.35833435 16.02324815 12.30687282 19.2421875 11.29296875 C10.56789836 5.51010932 -3.00967693 8.32565784 -12.8203125 9.54296875 Z " fill="#566BBB" transform="translate(347.7578125,128.70703125)"/>
<path d="M0 0 C11.03168388 -0.42606712 21.39146891 1.8387114 32.140625 4.1015625 C39.02387027 5.51252796 45.78644367 6.69053886 52.8046875 5.85546875 C66.26191587 4.2784498 79.08497787 5.28033664 92.2421875 8.29296875 C92.90089844 8.43798828 93.55960937 8.58300781 94.23828125 8.73242188 C120.0838383 14.64363344 143.42261713 28.9537778 162.2421875 47.29296875 C162.95632813 47.93363281 163.67046875 48.57429688 164.40625 49.234375 C185.09032179 68.31151691 193.51574554 98.60048468 199.5546875 125.04296875 C199.79727295 126.09419922 200.0398584 127.14542969 200.28979492 128.22851562 C203.62915837 143.57377007 204.63827024 158.93819058 204.5546875 174.60546875 C204.551203 175.41400299 204.54771851 176.22253723 204.54412842 177.05557251 C204.24893206 224.85797719 186.94364137 283.93005946 152.93359375 318.65039062 C151.1390764 320.39310321 149.28625688 322.04258509 147.3984375 323.68359375 C146.43877075 324.52760742 146.43877075 324.52760742 145.4597168 325.38867188 C144.22457117 326.46125252 142.97148316 327.51364372 141.69848633 328.54101562 C138.5393943 331.27407691 136.87723135 333.29063828 136.27734375 337.4921875 C136.04395691 342.83042166 136.63798447 348.07396175 137.3671875 353.35546875 C137.50406982 354.3619043 137.64095215 355.36833984 137.78198242 356.40527344 C141.0945531 379.03245739 151.0693966 399.52904525 169.50439453 413.67797852 C188.1510889 427.47957582 211.21965061 439.59776544 233.93847656 444.76708984 C236.65653937 445.38755479 239.36684196 446.03805716 242.078125 446.6875 C253.09386085 449.30072201 264.13554161 451.72312465 275.2421875 453.91796875 C276.27666016 454.12429932 277.31113281 454.33062988 278.37695312 454.54321289 C283.05367119 455.47400514 287.73186364 456.38477435 292.421875 457.24609375 C308.71888071 460.36006577 321.25446272 468.81243957 331.1796875 482.29296875 C339.37614038 494.88177915 340.40340171 508.68538499 341.3671875 523.35546875 C341.45355469 524.52529297 341.53992188 525.69511719 341.62890625 526.90039062 C342.31900733 537.03830418 342.32823347 547.13612923 342.2421875 557.29296875 C341.51777969 557.30327621 340.79337189 557.31358368 340.04701233 557.32420349 C333.23366848 557.42201643 326.4204095 557.52450734 319.60721684 557.63230801 C316.10414395 557.6875683 312.60106277 557.74099309 309.09790039 557.7902832 C305.07428606 557.84697543 301.05083219 557.91154276 297.02734375 557.9765625 C295.76382584 557.99327499 294.50030792 558.00998749 293.19850159 558.02720642 C292.0373735 558.04715164 290.87624542 558.06709686 289.67993164 558.08764648 C288.65178848 558.10319077 287.62364532 558.11873505 286.56434631 558.13475037 C284.28133397 558.03468746 284.28133397 558.03468746 283.2421875 559.29296875 C281.34410338 559.41236025 279.44150823 559.45988616 277.53979492 559.48143005 C276.27125168 559.49798834 275.00270844 559.51454662 273.69572449 559.53160667 C272.24636991 559.54523923 270.79701375 559.55870328 269.34765625 559.57202148 C267.7875787 559.58975818 266.22750492 559.60782954 264.66743469 559.62619972 C260.22056646 559.67676981 255.77365072 559.71994049 251.32669067 559.76155782 C248.39583896 559.78938386 245.46500951 559.81895845 242.53417969 559.84899712 C172.5299691 560.5617664 102.52117958 560.86023685 32.5145725 561.2393202 C17.32220105 561.32162821 2.12984639 561.40660292 -13.0625 561.4934082 C-59.42163756 561.75797866 -105.78079542 562.00661387 -152.14021742 562.21616016 C-163.25122149 562.26638412 -174.36218635 562.32157052 -185.47314453 562.38104248 C-195.94819093 562.43680076 -206.42320505 562.48297674 -216.89836311 562.51154965 C-221.77638838 562.52488571 -226.65427683 562.54242937 -231.53222656 562.57313728 C-235.81404024 562.59993481 -240.09565066 562.61339028 -244.37754631 562.61464429 C-245.87775456 562.61742944 -247.37796388 562.62524759 -248.8781147 562.63866687 C-250.86146225 562.65571474 -252.84495301 562.65273226 -254.82836914 562.64842224 C-256.45555626 562.65417346 -256.45555626 562.65417346 -258.11561584 562.66004086 C-260.7578125 562.29296875 -260.7578125 562.29296875 -262.58891296 560.98845005 C-264.55913022 558.13066252 -264.50085786 554.83744262 -264.7421875 551.46875 C-264.80690247 550.68968796 -264.87161743 549.91062592 -264.93829346 549.10795593 C-265.07245134 547.45164664 -265.19977225 545.79477158 -265.32080078 544.13745117 C-265.50392466 541.65810682 -265.71298216 539.18202979 -265.92578125 536.70507812 C-268.8312726 500.7849113 -268.8312726 500.7849113 -259.6328125 488.60546875 C-258.36002038 487.15123038 -257.0672597 485.71429105 -255.7578125 484.29296875 C-255.06300781 483.45894531 -254.36820313 482.62492187 -253.65234375 481.765625 C-239.22458908 464.78428544 -218.47187825 459.42756848 -198.02554321 452.70547485 C-144.83278963 436.32414563 -144.83278963 436.32414563 -102.3203125 402.23046875 C-101.8046875 401.59109375 -101.2890625 400.95171875 -100.7578125 400.29296875 C-100.0978125 400.29296875 -99.4378125 400.29296875 -98.7578125 400.29296875 C-98.50386719 399.72578125 -98.24992188 399.15859375 -97.98828125 398.57421875 C-96.60493405 396.00953695 -94.95502906 394.01463857 -93.0703125 391.79296875 C-78.47869472 373.68561698 -75.061279 353.78852458 -72.7578125 331.29296875 C-73.80775391 330.91978516 -73.80775391 330.91978516 -74.87890625 330.5390625 C-101.01343407 319.2271027 -119.4210323 291.20752059 -130.7578125 266.29296875 C-131.29148438 265.12636719 -131.82515625 263.95976562 -132.375 262.7578125 C-153.99991975 212.16894583 -151.69049806 152.32573911 -136.7578125 100.29296875 C-136.43224365 99.14272217 -136.43224365 99.14272217 -136.10009766 97.96923828 C-130.71861069 79.56629015 -121.26854486 61.80102855 -108.7578125 47.29296875 C-108.16742188 46.55433594 -107.57703125 45.81570312 -106.96875 45.0546875 C-102.25553342 39.30277627 -96.62445364 34.8226294 -90.7578125 30.29296875 C-90.19529785 29.85017578 -89.6327832 29.40738281 -89.05322266 28.95117188 C-62.7296161 8.3091796 -32.76739268 2.55463041 0 0 Z M-12.8203125 9.54296875 C-13.90940918 9.67719238 -14.99850586 9.81141602 -16.12060547 9.94970703 C-42.29841206 13.33307595 -63.51185505 20.89110416 -84.71826172 36.76708984 C-86.41136222 38.03377384 -88.11631903 39.28459199 -89.82421875 40.53125 C-117.62062886 61.54168206 -130.34865352 100.26662484 -135.7578125 133.29296875 C-135.94118164 134.4113916 -136.12455078 135.52981445 -136.31347656 136.68212891 C-144.65709104 189.16501692 -138.56882878 245.96727642 -107.19482422 290.3203125 C-97.01865563 304.28963669 -84.74913383 315.12766339 -69.83203125 323.890625 C-67.7578125 325.29296875 -67.7578125 325.29296875 -65.7578125 328.29296875 C-62.88095939 350.2924337 -70.45504679 374.74764527 -82.5234375 392.95703125 C-88.42874545 400.63393158 -95.41395713 407.55890268 -102.10595703 414.54882812 C-103.40920116 415.92488134 -104.68129241 417.33043813 -105.94140625 418.74609375 C-126.95303678 441.76997397 -165.83362561 451.15433055 -194.5078125 460.54296875 C-229.32835035 471.21802815 -229.32835035 471.21802815 -254.45703125 496.22265625 C-262.13383071 514.34266939 -257.89484979 535.38866373 -255.7578125 554.29296875 C-225.92358763 554.93086526 -196.09791631 555.38505592 -166.25667 555.35362363 C-164.05366125 555.35150517 -161.85065358 555.35031841 -159.64764404 555.34934807 C-130.66957205 555.3351804 -101.69341887 555.1554016 -72.71630859 554.92285156 C-57.40728606 554.80000921 -42.09818499 554.6877187 -26.7890625 554.578125 C-25.9662315 554.57221045 -25.1434005 554.5662959 -24.29563522 554.56020212 C5.72485501 554.34486068 35.74549307 554.18972938 65.76644325 554.05459857 C69.21021704 554.03906575 72.65399014 554.02338732 76.09776306 554.00766182 C96.60560433 553.91406124 117.11344672 553.82085809 137.62133789 553.73880005 C150.41163781 553.68754553 163.20192153 553.63337424 175.9921875 553.57421875 C177.50809573 553.5672306 177.50809573 553.5672306 179.05462837 553.56010127 C211.79051807 553.4070865 244.51411947 553.05509277 277.2421875 552.29296875 C277.26786282 547.99610497 277.28323664 543.69926127 277.296875 539.40234375 C277.30420654 538.19626465 277.31153809 536.99018555 277.3190918 535.74755859 C277.34708273 523.96737484 276.71233101 512.62351308 273.2421875 501.29296875 C272.98179687 500.42414063 272.72140625 499.5553125 272.453125 498.66015625 C267.73413798 484.59140054 259.46688844 471.50043076 246.2421875 464.29296875 C243.29623298 463.01745583 240.33286773 462.14591135 237.2421875 461.29296875 C236.09689575 460.96449951 236.09689575 460.96449951 234.9284668 460.62939453 C223.62467373 457.58448084 212.00023162 456.13696997 200.43798828 454.4206543 C189.09095825 452.72745128 178.17627727 450.85106049 167.2421875 447.29296875 C165.941604 446.8899353 165.941604 446.8899353 164.61474609 446.47875977 C162.35702623 445.77365365 160.1114353 445.03968374 157.8671875 444.29296875 C157.13886719 444.05835938 156.41054688 443.82375 155.66015625 443.58203125 C151.23028223 442.11330297 147.14407887 440.32858184 143.00195312 438.18115234 C140.94586335 437.14340892 138.85347725 436.3620917 136.6796875 435.60546875 C129.37828245 432.75476585 122.84952201 428.4578361 116.2421875 424.29296875 C115.00275391 423.51759766 115.00275391 423.51759766 113.73828125 422.7265625 C111.53144069 421.30004125 109.38299016 419.81692997 107.2421875 418.29296875 C106.21351563 417.5659375 105.18484375 416.83890625 104.125 416.08984375 C96.64508025 410.65871006 90.68606996 404.84956945 85.2421875 397.29296875 C84.55253906 396.34808594 83.86289062 395.40320313 83.15234375 394.4296875 C81.07557434 391.01936882 79.83938305 387.66129278 78.7421875 383.85546875 C78.43244995 382.79525513 78.43244995 382.79525513 78.11645508 381.71362305 C77.6935762 380.25992616 77.27404124 378.80525222 76.85791016 377.34960938 C76.3115926 375.5247961 75.67925453 373.72622973 75.03515625 371.93359375 C72.11898038 363.1541526 71.66917445 354.49643531 71.4296875 345.29296875 C71.36934326 344.02751221 71.30899902 342.76205566 71.24682617 341.45825195 C71.18814997 332.5602127 71.18814997 332.5602127 74.15161133 328.99731445 C76.43564004 327.22440035 78.7425049 325.74071179 81.2421875 324.29296875 C93.81153428 313.82863335 101.70626912 298.74363088 109.1796875 284.48046875 C109.71110352 283.46791016 110.24251953 282.45535156 110.79003906 281.41210938 C114.00287555 275.13293687 116.7006193 268.78212342 119.16015625 262.17260742 C119.96779838 260.02320784 120.85331349 257.90277374 121.77734375 255.80078125 C124.04908811 250.36071075 125.83372376 244.76441306 127.6796875 239.16796875 C128.06189453 238.02070313 128.44410156 236.8734375 128.83789062 235.69140625 C129.98601741 232.22948238 131.11642566 228.76222346 132.2421875 225.29296875 C132.60715332 224.18985352 132.97211914 223.08673828 133.34814453 221.95019531 C137.51042377 209.02187453 138.58726756 196.84200359 138.4921875 183.35546875 C138.48908569 182.57416595 138.48598389 181.79286316 138.48278809 180.98788452 C138.35675499 149.26852728 138.35675499 149.26852728 132.2421875 118.29296875 C132.04189941 117.59896973 131.84161133 116.9049707 131.63525391 116.18994141 C129.59398363 109.12302217 127.4248573 102.18648718 124.25390625 95.53125 C123.03447227 92.83342887 122.06064182 90.0773679 121.0546875 87.29296875 C115.62945398 73.17746757 108.57001943 61.31549789 98.2421875 50.29296875 C97.57574219 49.55820313 96.90929687 48.8234375 96.22265625 48.06640625 C76.22225659 26.92914176 48.94513203 13.78997802 20.4921875 9.54296875 C19.21577393 9.35105957 19.21577393 9.35105957 17.91357422 9.15527344 C7.53759008 7.73390575 -2.45571645 8.25692202 -12.8203125 9.54296875 Z " fill="#566BBA" transform="translate(347.7578125,128.70703125)"/>
<path d="M0 0 C14.36838327 -0.55493756 33.08173401 1.18599976 45.2421875 9.29296875 C47.4620184 10.17111197 49.69300874 11.02117093 51.9296875 11.85546875 C70.56839768 19.1052497 85.84615697 30.59674526 100.2421875 44.29296875 C101.0465625 45.02128906 101.8509375 45.74960938 102.6796875 46.5 C115.61334522 58.60284984 123.17949637 75.25897186 128.9609375 91.6953125 C129.84550835 94.17912274 130.74709886 96.6479201 131.6796875 99.11328125 C138.04849377 116.07572532 141.84910036 132.19471722 143.2421875 150.29296875 C143.31131348 151.18838379 143.38043945 152.08379883 143.45166016 153.00634766 C143.88745799 159.09946831 144.10801209 165.18642733 144.2421875 171.29296875 C144.26941895 172.37433105 144.29665039 173.45569336 144.32470703 174.56982422 C144.74625954 193.40712358 143.27021974 209.35797529 137.2421875 227.29296875 C136.60333587 229.2115015 135.96448549 231.13003467 135.32568359 233.04858398 C134.71835099 234.86484359 134.10356725 236.67860679 133.48828125 238.4921875 C132.55986819 241.32399287 131.70144367 244.14676086 130.875 247.0078125 C121.87039137 277.20713664 105.53013813 316.10100166 78.2421875 334.29296875 C77.52855071 338.22253507 77.72093401 342.24404059 77.7421875 346.23046875 C77.74573242 347.4002124 77.74927734 348.56995605 77.75292969 349.77514648 C78.12087599 369.28296624 84.47975138 388.30677483 97.2421875 403.29296875 C109.90256746 415.32032971 127.13115974 425.71214848 143.2421875 432.29296875 C144.46454096 432.82845385 145.68586097 433.36630289 146.90625 433.90625 C170.94575312 444.33313273 196.33681523 448.57519217 222.15234375 452.125 C236.11750308 454.05410877 249.80742349 457.11907384 260.2421875 467.29296875 C261.139375 468.16695312 261.139375 468.16695312 262.0546875 469.05859375 C281.41086463 489.62453195 283.14192986 516.80522867 283.9921875 543.60546875 C284.01551147 544.32903564 284.03883545 545.05260254 284.06286621 545.7980957 C284.1252459 547.85486996 284.17832897 549.91159967 284.2265625 551.96875 C284.25459961 553.16411377 284.28263672 554.35947754 284.31152344 555.59106445 C284.2421875 558.29296875 284.2421875 558.29296875 283.2421875 559.29296875 C281.34410338 559.41236025 279.44150823 559.45988616 277.53979492 559.48143005 C276.27125168 559.49798834 275.00270844 559.51454662 273.69572449 559.53160667 C272.24636991 559.54523923 270.79701375 559.55870328 269.34765625 559.57202148 C267.7875787 559.58975818 266.22750492 559.60782954 264.66743469 559.62619972 C260.22056646 559.67676981 255.77365072 559.71994049 251.32669067 559.76155782 C248.39583896 559.78938386 245.46500951 559.81895845 242.53417969 559.84899712 C172.5299691 560.5617664 102.52117958 560.86023685 32.5145725 561.2393202 C17.32220105 561.32162821 2.12984639 561.40660292 -13.0625 561.4934082 C-59.42163756 561.75797866 -105.78079542 562.00661387 -152.14021742 562.21616016 C-163.25122149 562.26638412 -174.36218635 562.32157052 -185.47314453 562.38104248 C-195.94819093 562.43680076 -206.42320505 562.48297674 -216.89836311 562.51154965 C-221.77638838 562.52488571 -226.65427683 562.54242937 -231.53222656 562.57313728 C-235.81404024 562.59993481 -240.09565066 562.61339028 -244.37754631 562.61464429 C-245.87775456 562.61742944 -247.37796388 562.62524759 -248.8781147 562.63866687 C-250.86146225 562.65571474 -252.84495301 562.65273226 -254.82836914 562.64842224 C-256.45555626 562.65417346 -256.45555626 562.65417346 -258.11561584 562.66004086 C-260.7578125 562.29296875 -260.7578125 562.29296875 -262.58891296 560.98845005 C-264.55913022 558.13066252 -264.50085786 554.83744262 -264.7421875 551.46875 C-264.80690247 550.68968796 -264.87161743 549.91062592 -264.93829346 549.10795593 C-265.07245134 547.45164664 -265.19977225 545.79477158 -265.32080078 544.13745117 C-265.50392466 541.65810682 -265.71298216 539.18202979 -265.92578125 536.70507812 C-268.8312726 500.7849113 -268.8312726 500.7849113 -259.6328125 488.60546875 C-258.36002038 487.15123038 -257.0672597 485.71429105 -255.7578125 484.29296875 C-255.06300781 483.45894531 -254.36820313 482.62492187 -253.65234375 481.765625 C-239.22458908 464.78428544 -218.47187825 459.42756848 -198.02554321 452.70547485 C-144.83278963 436.32414563 -144.83278963 436.32414563 -102.3203125 402.23046875 C-101.8046875 401.59109375 -101.2890625 400.95171875 -100.7578125 400.29296875 C-100.0978125 400.29296875 -99.4378125 400.29296875 -98.7578125 400.29296875 C-98.50386719 399.72578125 -98.24992188 399.15859375 -97.98828125 398.57421875 C-96.60493405 396.00953695 -94.95502906 394.01463857 -93.0703125 391.79296875 C-78.47869472 373.68561698 -75.061279 353.78852458 -72.7578125 331.29296875 C-73.80775391 330.91978516 -73.80775391 330.91978516 -74.87890625 330.5390625 C-101.01343407 319.2271027 -119.4210323 291.20752059 -130.7578125 266.29296875 C-131.29148438 265.12636719 -131.82515625 263.95976562 -132.375 262.7578125 C-153.99991975 212.16894583 -151.69049806 152.32573911 -136.7578125 100.29296875 C-136.43224365 99.14272217 -136.43224365 99.14272217 -136.10009766 97.96923828 C-130.71861069 79.56629015 -121.26854486 61.80102855 -108.7578125 47.29296875 C-108.16742188 46.55433594 -107.57703125 45.81570312 -106.96875 45.0546875 C-102.25553342 39.30277627 -96.62445364 34.8226294 -90.7578125 30.29296875 C-90.19529785 29.85017578 -89.6327832 29.40738281 -89.05322266 28.95117188 C-62.7296161 8.3091796 -32.76739268 2.55463041 0 0 Z M-12.8203125 9.54296875 C-13.90940918 9.67719238 -14.99850586 9.81141602 -16.12060547 9.94970703 C-42.29841206 13.33307595 -63.51185505 20.89110416 -84.71826172 36.76708984 C-86.41136222 38.03377384 -88.11631903 39.28459199 -89.82421875 40.53125 C-117.62062886 61.54168206 -130.34865352 100.26662484 -135.7578125 133.29296875 C-135.94118164 134.4113916 -136.12455078 135.52981445 -136.31347656 136.68212891 C-144.65709104 189.16501692 -138.56882878 245.96727642 -107.19482422 290.3203125 C-97.01865563 304.28963669 -84.74913383 315.12766339 -69.83203125 323.890625 C-67.7578125 325.29296875 -67.7578125 325.29296875 -65.7578125 328.29296875 C-62.88095939 350.2924337 -70.45504679 374.74764527 -82.5234375 392.95703125 C-88.42874545 400.63393158 -95.41395713 407.55890268 -102.10595703 414.54882812 C-103.40920116 415.92488134 -104.68129241 417.33043813 -105.94140625 418.74609375 C-126.95303678 441.76997397 -165.83362561 451.15433055 -194.5078125 460.54296875 C-229.32835035 471.21802815 -229.32835035 471.21802815 -254.45703125 496.22265625 C-262.13383071 514.34266939 -257.89484979 535.38866373 -255.7578125 554.29296875 C-225.92358763 554.93086526 -196.09791631 555.38505592 -166.25667 555.35362363 C-164.05366125 555.35150517 -161.85065358 555.35031841 -159.64764404 555.34934807 C-130.66957205 555.3351804 -101.69341887 555.1554016 -72.71630859 554.92285156 C-57.40728606 554.80000921 -42.09818499 554.6877187 -26.7890625 554.578125 C-25.9662315 554.57221045 -25.1434005 554.5662959 -24.29563522 554.56020212 C5.72485501 554.34486068 35.74549307 554.18972938 65.76644325 554.05459857 C69.21021704 554.03906575 72.65399014 554.02338732 76.09776306 554.00766182 C96.60560433 553.91406124 117.11344672 553.82085809 137.62133789 553.73880005 C150.41163781 553.68754553 163.20192153 553.63337424 175.9921875 553.57421875 C177.50809573 553.5672306 177.50809573 553.5672306 179.05462837 553.56010127 C211.79051807 553.4070865 244.51411947 553.05509277 277.2421875 552.29296875 C277.26786282 547.99610497 277.28323664 543.69926127 277.296875 539.40234375 C277.30420654 538.19626465 277.31153809 536.99018555 277.3190918 535.74755859 C277.34708273 523.96737484 276.71233101 512.62351308 273.2421875 501.29296875 C272.98179687 500.42414063 272.72140625 499.5553125 272.453125 498.66015625 C267.73413798 484.59140054 259.46688844 471.50043076 246.2421875 464.29296875 C243.29623298 463.01745583 240.33286773 462.14591135 237.2421875 461.29296875 C236.09689575 460.96449951 236.09689575 460.96449951 234.9284668 460.62939453 C223.62467373 457.58448084 212.00023162 456.13696997 200.43798828 454.4206543 C189.09095825 452.72745128 178.17627727 450.85106049 167.2421875 447.29296875 C165.941604 446.8899353 165.941604 446.8899353 164.61474609 446.47875977 C162.35702623 445.77365365 160.1114353 445.03968374 157.8671875 444.29296875 C157.13886719 444.05835938 156.41054688 443.82375 155.66015625 443.58203125 C151.23028223 442.11330297 147.14407887 440.32858184 143.00195312 438.18115234 C140.94586335 437.14340892 138.85347725 436.3620917 136.6796875 435.60546875 C129.37828245 432.75476585 122.84952201 428.4578361 116.2421875 424.29296875 C115.00275391 423.51759766 115.00275391 423.51759766 113.73828125 422.7265625 C111.53144069 421.30004125 109.38299016 419.81692997 107.2421875 418.29296875 C106.21351563 417.5659375 105.18484375 416.83890625 104.125 416.08984375 C96.64508025 410.65871006 90.68606996 404.84956945 85.2421875 397.29296875 C84.55253906 396.34808594 83.86289062 395.40320313 83.15234375 394.4296875 C81.07557434 391.01936882 79.83938305 387.66129278 78.7421875 383.85546875 C78.43244995 382.79525513 78.43244995 382.79525513 78.11645508 381.71362305 C77.6935762 380.25992616 77.27404124 378.80525222 76.85791016 377.34960938 C76.3115926 375.5247961 75.67925453 373.72622973 75.03515625 371.93359375 C72.11898038 363.1541526 71.66917445 354.49643531 71.4296875 345.29296875 C71.36934326 344.02751221 71.30899902 342.76205566 71.24682617 341.45825195 C71.18814997 332.5602127 71.18814997 332.5602127 74.15161133 328.99731445 C76.43564004 327.22440035 78.7425049 325.74071179 81.2421875 324.29296875 C93.81153428 313.82863335 101.70626912 298.74363088 109.1796875 284.48046875 C109.71110352 283.46791016 110.24251953 282.45535156 110.79003906 281.41210938 C114.00287555 275.13293687 116.7006193 268.78212342 119.16015625 262.17260742 C119.96779838 260.02320784 120.85331349 257.90277374 121.77734375 255.80078125 C124.04908811 250.36071075 125.83372376 244.76441306 127.6796875 239.16796875 C128.06189453 238.02070313 128.44410156 236.8734375 128.83789062 235.69140625 C129.98601741 232.22948238 131.11642566 228.76222346 132.2421875 225.29296875 C132.60715332 224.18985352 132.97211914 223.08673828 133.34814453 221.95019531 C137.51042377 209.02187453 138.58726756 196.84200359 138.4921875 183.35546875 C138.48908569 182.57416595 138.48598389 181.79286316 138.48278809 180.98788452 C138.35675499 149.26852728 138.35675499 149.26852728 132.2421875 118.29296875 C132.04189941 117.59896973 131.84161133 116.9049707 131.63525391 116.18994141 C129.59398363 109.12302217 127.4248573 102.18648718 124.25390625 95.53125 C123.03447227 92.83342887 122.06064182 90.0773679 121.0546875 87.29296875 C115.62945398 73.17746757 108.57001943 61.31549789 98.2421875 50.29296875 C97.57574219 49.55820313 96.90929687 48.8234375 96.22265625 48.06640625 C76.22225659 26.92914176 48.94513203 13.78997802 20.4921875 9.54296875 C19.21577393 9.35105957 19.21577393 9.35105957 17.91357422 9.15527344 C7.53759008 7.73390575 -2.45571645 8.25692202 -12.8203125 9.54296875 Z " fill="#010203" transform="translate(347.7578125,128.70703125)"/>
</svg>
