<svg xmlns="http://www.w3.org/2000/svg" width="753" height="810" viewBox="0 0 753 810" version="1.1"><path d="M 369 148.496 C 334.318 152.719, 316.964 158.849, 296.500 174.104 C 277.425 188.324, 268.063 199.371, 256.551 221.242 C 246.336 240.646, 240.822 260.739, 236.413 294.619 C 234.234 311.367, 233.911 316.943, 234.366 330 C 235.933 375.032, 245.769 409.349, 265.747 439.488 C 273.936 451.841, 288.345 466.441, 300.300 474.498 L 309.100 480.429 308.462 488.464 C 307.127 505.285, 302.012 521.202, 294.288 532.577 C 288.434 541.196, 270.923 560.137, 263.987 565.351 C 250.937 575.160, 221.921 587.723, 180.513 601.493 C 148.095 612.272, 142.772 615.009, 131.085 626.907 C 125.907 632.179, 120.875 638.294, 119.904 640.496 C 116.455 648.314, 115.685 657.198, 116.333 681.720 C 116.987 706.474, 117.693 710.133, 122.082 711.526 C 123.238 711.893, 148.106 711.920, 177.343 711.585 C 206.579 711.250, 328.150 710.483, 447.500 709.880 L 664.500 708.783 666.875 706.642 L 669.249 704.500 668.679 686 C 667.670 653.281, 663.419 637.572, 650.953 620.500 C 643.905 610.848, 635.555 604.803, 624.171 601.109 C 620.689 599.980, 608.539 597.664, 597.171 595.962 C 564.628 591.092, 553.894 588.369, 531.500 579.301 C 518.349 573.975, 513.149 571.119, 498 560.895 C 479.580 548.463, 473.854 541.669, 468.399 525.764 C 464.578 514.627, 463.136 506.438, 462.935 494.744 L 462.752 484.054 467.868 480.010 C 481.611 469.147, 499.248 440.799, 510.490 411.500 C 515.484 398.488, 525.213 368.416, 527.638 358.500 C 530.927 345.053, 529.244 290.584, 524.975 272.297 C 519.828 250.249, 507.955 220.667, 498.626 206.646 C 491.627 196.127, 474.407 179.407, 462.085 171.165 C 446.323 160.621, 425.500 151.620, 414.303 150.510 C 411.661 150.248, 405.675 149.352, 401 148.518 C 391.046 146.744, 383.431 146.738, 369 148.496 M 378.500 157.642 C 355.027 160.317, 342.826 162.721, 330.057 167.183 C 319.521 170.865, 315.401 173.203, 301.819 183.201 C 288.104 193.297, 279.069 203.055, 271.244 216.223 C 256.985 240.217, 250.887 260.191, 246.043 298.768 C 243.127 321.987, 243.544 339.124, 247.617 363.500 C 253.158 396.660, 265.963 425.769, 284.172 446.594 C 291.221 454.656, 295.265 458.131, 307.355 466.514 C 319.229 474.746, 319.103 474.440, 317.873 492.170 C 316.556 511.155, 311.150 527.030, 301.300 540.832 C 298.690 544.490, 290.242 553.806, 282.527 561.533 C 271.728 572.349, 266.618 576.672, 260.322 580.317 C 244.876 589.258, 220.282 599.206, 182.204 611.916 C 155.305 620.894, 147.405 624.803, 139.308 633.139 C 130.246 642.469, 129.189 644.103, 127.337 651.645 C 125.425 659.429, 125.174 677.789, 126.916 682.315 C 127.512 683.863, 128.007 687.913, 128.015 691.315 C 128.024 694.717, 128.418 698.111, 128.891 698.859 C 129.616 700.002, 164.473 700.041, 349.126 699.102 C 469.782 698.489, 588.475 697.711, 612.888 697.373 L 657.276 696.759 656.696 681.130 C 655.732 655.160, 650.693 638.412, 639.974 625.549 C 631.475 615.351, 624.884 612.355, 602.500 608.514 C 554.707 600.315, 538.236 595.700, 514.762 583.931 C 502.870 577.968, 476.842 560.637, 471.853 555.359 C 464.201 547.263, 458.742 536.445, 454.417 520.802 C 452.316 513.202, 451.743 508.469, 451.290 494.936 L 450.734 478.372 453.617 476.144 C 463.540 468.474, 466.410 465.822, 470.532 460.513 C 480.811 447.276, 492.813 425.353, 499.327 407.918 C 505.624 391.064, 515.059 361.195, 516.553 353.387 C 519.079 340.182, 517.860 297.246, 514.464 279.821 C 511.363 263.905, 502.678 239.177, 494.722 223.605 C 486.249 207.024, 474.814 194.401, 457.184 182.169 C 450.197 177.320, 446.231 174.977, 433.671 168.274 C 420.932 161.475, 392.663 156.027, 378.500 157.642" stroke="none" fill="hsla(219, 63%, 26%, 100%)" fill-rule="evenodd"/><path d="M 320.067 133.616 C 292.972 138.156, 262.294 153.889, 242.438 173.429 C 221.762 193.776, 209.520 221.537, 201.396 266.500 C 198.862 280.527, 198.779 320.401, 201.256 333.657 C 206.266 360.463, 225.179 411.567, 236.041 427.649 C 237.844 430.317, 245.500 438.800, 253.056 446.500 C 262.926 456.558, 266.982 461.392, 267.459 463.668 C 268.225 467.323, 265.646 488.691, 263.383 497.442 C 258.264 517.232, 244.409 534.803, 223.882 547.535 C 218.722 550.736, 207.220 556.881, 198.321 561.191 C 185.471 567.415, 179.813 569.559, 170.821 571.612 C 164.595 573.033, 153.200 575.703, 145.500 577.544 C 137.800 579.384, 124.975 582.061, 117 583.492 C 97.196 587.044, 92.248 589.455, 80.496 601.275 C 69.604 612.231, 66.484 617.950, 64.480 630.631 C 63.178 638.863, 61 669.538, 61 679.627 L 61 684.032 88.605 683.766 L 116.211 683.500 116.100 669.500 C 115.986 655.105, 117.429 644.939, 120.401 639.192 C 121.248 637.553, 126.117 631.962, 131.221 626.767 C 142.755 615.027, 148.187 612.242, 180.513 601.493 C 221.921 587.723, 250.937 575.160, 263.987 565.351 C 270.923 560.137, 288.434 541.196, 294.288 532.577 C 302.012 521.202, 307.127 505.285, 308.462 488.464 L 309.100 480.429 300.300 474.498 C 288.345 466.441, 273.936 451.841, 265.747 439.488 C 245.769 409.349, 235.933 375.032, 234.366 330 C 233.482 304.598, 239.327 265.722, 247.655 241.617 C 254.230 222.589, 267.025 201.028, 278.861 189.032 C 287.778 179.996, 305.675 166.794, 315.500 162.005 C 329.804 155.033, 350.887 150.132, 376.539 147.815 C 388.678 146.718, 390.793 146.791, 401.647 148.675 C 408.166 149.806, 413.657 150.598, 413.849 150.433 C 415.085 149.377, 389.712 138.840, 381.499 137 C 374.192 135.362, 342.276 132.006, 335 132.111 C 331.425 132.162, 324.705 132.839, 320.067 133.616 M 378.500 157.579 C 376.850 157.802, 371.450 158.476, 366.500 159.079 C 347.480 161.392, 326.888 167.082, 317 172.756 C 307.894 177.981, 290.948 191.267, 284.319 198.379 C 277.394 205.809, 267.333 221.552, 262.112 233.126 C 254.617 249.742, 249.653 270.021, 246.043 298.768 C 243.127 321.987, 243.544 339.124, 247.617 363.500 C 253.158 396.660, 265.963 425.769, 284.172 446.594 C 291.221 454.656, 295.265 458.131, 307.355 466.514 C 319.229 474.746, 319.103 474.440, 317.873 492.170 C 316.556 511.155, 311.150 527.030, 301.300 540.832 C 298.690 544.490, 290.242 553.806, 282.527 561.533 C 271.728 572.349, 266.618 576.672, 260.322 580.317 C 244.876 589.258, 220.282 599.206, 182.204 611.916 C 155.305 620.894, 147.405 624.803, 139.308 633.139 C 130.240 642.474, 129.186 644.106, 127.353 651.645 C 125.623 658.755, 125.124 673.663, 126.392 680.329 L 127.120 684.159 177.810 683.583 C 205.690 683.267, 311.975 682.744, 413.999 682.421 C 516.024 682.099, 599.625 681.709, 599.779 681.554 C 601.068 680.265, 605.182 653.687, 605.283 646 C 605.470 631.738, 602.014 623.289, 589.586 607.627 C 588.481 606.235, 584.682 605.155, 574.800 603.422 C 542.997 597.848, 519.399 588.346, 490.227 569.368 C 481.884 563.941, 471.849 557.475, 467.926 555 C 456.781 547.967, 431.081 523.507, 425.604 514.719 C 417.061 501.011, 411.599 485.220, 410.014 469.642 C 408.944 459.117, 409.261 456, 411.403 456 C 413.339 456, 426.812 446.720, 436.640 438.617 C 441.666 434.473, 448.083 428.026, 450.898 424.291 C 462.539 408.849, 472.411 384.011, 477.957 356.211 C 482.499 333.445, 483.329 323.284, 482.711 298.029 C 481.332 241.702, 469.914 207.256, 441.848 174.748 C 437.974 170.262, 435.882 168.843, 429.348 166.273 C 414.280 160.347, 389.455 156.102, 378.500 157.579" stroke="none" fill="url(#Gradient)" fill-rule="evenodd"/>
    <defs>
	<!-- <linearGradient id="Gradient" x1="0" x2="0" y1="0" y2="1"> -->
	<linearGradient id="Gradient" gradientTransform="rotate(90deg))">
      <stop offset="0%" stop-color="hsla(228, 54%, 70%, 1)" />
      <!-- <stop offset="50%" stop-color="black" stop-opacity="0" /> -->
      <stop offset="100%" stop-color="hsla(228, 54%, 70%, 0)" />
    </linearGradient>
</defs>


</svg>